<svg version="1.1" id="Layer_1" xmlns="http://www.w3.org/2000/svg" xmlns:xlink="http://www.w3.org/1999/xlink" x="0px" y="0px" viewBox="0 0 120 155.7" style="enable-background:new 0 0 120 155.7;" xml:space="preserve" height="100px" width="100px" transform="rotate(0) scale(1, 1)">
<style type="text/css">.st0 { fill: #333333; }</style>
<g>
	<g>
		<path class="st0" d="M72.6,0.6H12.7l18.7,18.7L57,44.9c1.1,1.1,0.4,3.1-1.3,3.1H0.2v59.9l0,0L30,137.7l18.2,18.2h59.9l-19.4-19.4&#10;&#9;&#9;&#9;l-25.6-25.8c-1.1-1.1-0.4-3.1,1.3-3.1H120V47.8L72.6,0.6z M63,104.5c-1.8,1.8-4.4,1.8-6,0L30.1,77.6L57,50.7l0,0&#10;&#9;&#9;&#9;c1.8-1.6,4.2-1.6,6,0l26.9,26.9L63,104.5z"/>
	</g>
</g>
</svg>